<mxfile host="app.diagrams.net" agent="Mozilla/5.0 (Windows NT 10.0; Win64; x64) AppleWebKit/537.36 (KHTML, like Gecko) Chrome/130.0.0.0 Safari/537.36 Edg/130.0.0.0" version="24.8.3">
  <diagram name="Page-1" id="N_lVuRX0UvZjj4MtlduB">
    <mxGraphModel grid="1" page="1" gridSize="10" guides="1" tooltips="1" connect="1" arrows="1" fold="1" pageScale="1" pageWidth="3300" pageHeight="4681" math="0" shadow="0">
      <root>
        <mxCell id="0" />
        <mxCell id="1" parent="0" />
        <mxCell id="ndSsIGm1OfHKqzPFfZBR-2" style="edgeStyle=orthogonalEdgeStyle;rounded=0;orthogonalLoop=1;jettySize=auto;html=1;" edge="1" parent="1" source="ndSsIGm1OfHKqzPFfZBR-1">
          <mxGeometry relative="1" as="geometry">
            <mxPoint x="470" y="130" as="targetPoint" />
          </mxGeometry>
        </mxCell>
        <mxCell id="ndSsIGm1OfHKqzPFfZBR-1" value="&lt;font size=&quot;3&quot;&gt;START&lt;/font&gt;" style="ellipse;whiteSpace=wrap;html=1;" vertex="1" parent="1">
          <mxGeometry x="410" y="10" width="120" height="60" as="geometry" />
        </mxCell>
        <mxCell id="ndSsIGm1OfHKqzPFfZBR-4" style="edgeStyle=orthogonalEdgeStyle;rounded=0;orthogonalLoop=1;jettySize=auto;html=1;entryX=0.5;entryY=0;entryDx=0;entryDy=0;" edge="1" parent="1" source="ndSsIGm1OfHKqzPFfZBR-3" target="ndSsIGm1OfHKqzPFfZBR-5">
          <mxGeometry relative="1" as="geometry">
            <mxPoint x="480" y="240" as="targetPoint" />
          </mxGeometry>
        </mxCell>
        <mxCell id="ndSsIGm1OfHKqzPFfZBR-3" value="enter number of units" style="shape=parallelogram;perimeter=parallelogramPerimeter;whiteSpace=wrap;html=1;fixedSize=1;" vertex="1" parent="1">
          <mxGeometry x="380" y="130" width="190" height="60" as="geometry" />
        </mxCell>
        <mxCell id="ndSsIGm1OfHKqzPFfZBR-6" style="edgeStyle=orthogonalEdgeStyle;rounded=0;orthogonalLoop=1;jettySize=auto;html=1;" edge="1" parent="1" source="ndSsIGm1OfHKqzPFfZBR-5">
          <mxGeometry relative="1" as="geometry">
            <mxPoint x="260" y="420" as="targetPoint" />
          </mxGeometry>
        </mxCell>
        <mxCell id="ndSsIGm1OfHKqzPFfZBR-14" value="Y" style="edgeLabel;html=1;align=center;verticalAlign=middle;resizable=0;points=[];" connectable="0" vertex="1" parent="ndSsIGm1OfHKqzPFfZBR-6">
          <mxGeometry x="-0.5259" relative="1" as="geometry">
            <mxPoint as="offset" />
          </mxGeometry>
        </mxCell>
        <mxCell id="ndSsIGm1OfHKqzPFfZBR-12" style="edgeStyle=orthogonalEdgeStyle;rounded=0;orthogonalLoop=1;jettySize=auto;html=1;" edge="1" parent="1" source="ndSsIGm1OfHKqzPFfZBR-5">
          <mxGeometry relative="1" as="geometry">
            <mxPoint x="780" y="410" as="targetPoint" />
          </mxGeometry>
        </mxCell>
        <mxCell id="ndSsIGm1OfHKqzPFfZBR-13" value="N" style="edgeLabel;html=1;align=center;verticalAlign=middle;resizable=0;points=[];" connectable="0" vertex="1" parent="ndSsIGm1OfHKqzPFfZBR-12">
          <mxGeometry x="-0.4468" y="1" relative="1" as="geometry">
            <mxPoint as="offset" />
          </mxGeometry>
        </mxCell>
        <mxCell id="ndSsIGm1OfHKqzPFfZBR-5" value="if number of units&amp;lt;=50" style="rhombus;whiteSpace=wrap;html=1;" vertex="1" parent="1">
          <mxGeometry x="386.25" y="260" width="177.5" height="80" as="geometry" />
        </mxCell>
        <mxCell id="ndSsIGm1OfHKqzPFfZBR-8" style="edgeStyle=orthogonalEdgeStyle;rounded=0;orthogonalLoop=1;jettySize=auto;html=1;" edge="1" parent="1" source="ndSsIGm1OfHKqzPFfZBR-7">
          <mxGeometry relative="1" as="geometry">
            <mxPoint x="260" y="560" as="targetPoint" />
          </mxGeometry>
        </mxCell>
        <mxCell id="ndSsIGm1OfHKqzPFfZBR-47" style="edgeStyle=orthogonalEdgeStyle;rounded=0;orthogonalLoop=1;jettySize=auto;html=1;" edge="1" parent="1" source="ndSsIGm1OfHKqzPFfZBR-7">
          <mxGeometry relative="1" as="geometry">
            <mxPoint x="830" y="1370" as="targetPoint" />
            <Array as="points">
              <mxPoint x="31" y="450" />
              <mxPoint x="31" y="1370" />
              <mxPoint x="610" y="1370" />
            </Array>
          </mxGeometry>
        </mxCell>
        <mxCell id="ndSsIGm1OfHKqzPFfZBR-7" value="amount=0.5*units" style="shape=parallelogram;perimeter=parallelogramPerimeter;whiteSpace=wrap;html=1;fixedSize=1;" vertex="1" parent="1">
          <mxGeometry x="150" y="420" width="220" height="60" as="geometry" />
        </mxCell>
        <mxCell id="ndSsIGm1OfHKqzPFfZBR-10" style="edgeStyle=orthogonalEdgeStyle;rounded=0;orthogonalLoop=1;jettySize=auto;html=1;" edge="1" parent="1" source="ndSsIGm1OfHKqzPFfZBR-9">
          <mxGeometry relative="1" as="geometry">
            <mxPoint x="260" y="700" as="targetPoint" />
          </mxGeometry>
        </mxCell>
        <mxCell id="ndSsIGm1OfHKqzPFfZBR-48" style="edgeStyle=orthogonalEdgeStyle;rounded=0;orthogonalLoop=1;jettySize=auto;html=1;" edge="1" parent="1" source="ndSsIGm1OfHKqzPFfZBR-9">
          <mxGeometry relative="1" as="geometry">
            <mxPoint x="830" y="1330" as="targetPoint" />
            <Array as="points">
              <mxPoint x="61" y="590" />
              <mxPoint x="61" y="1330" />
            </Array>
          </mxGeometry>
        </mxCell>
        <mxCell id="ndSsIGm1OfHKqzPFfZBR-9" value="after surcharge=amount+(20%100)*amount" style="shape=parallelogram;perimeter=parallelogramPerimeter;whiteSpace=wrap;html=1;fixedSize=1;" vertex="1" parent="1">
          <mxGeometry x="100" y="560" width="320" height="60" as="geometry" />
        </mxCell>
        <mxCell id="ndSsIGm1OfHKqzPFfZBR-52" style="edgeStyle=orthogonalEdgeStyle;rounded=0;orthogonalLoop=1;jettySize=auto;html=1;" edge="1" parent="1" source="ndSsIGm1OfHKqzPFfZBR-11">
          <mxGeometry relative="1" as="geometry">
            <mxPoint x="830" y="1300" as="targetPoint" />
            <mxPoint x="134" y="750" as="sourcePoint" />
            <Array as="points">
              <mxPoint x="80" y="730" />
              <mxPoint x="80" y="1300" />
            </Array>
          </mxGeometry>
        </mxCell>
        <mxCell id="ndSsIGm1OfHKqzPFfZBR-11" value="print(amount after surcharge)" style="shape=parallelogram;perimeter=parallelogramPerimeter;whiteSpace=wrap;html=1;fixedSize=1;" vertex="1" parent="1">
          <mxGeometry x="145" y="700" width="230" height="60" as="geometry" />
        </mxCell>
        <mxCell id="ndSsIGm1OfHKqzPFfZBR-16" style="edgeStyle=orthogonalEdgeStyle;rounded=0;orthogonalLoop=1;jettySize=auto;html=1;" edge="1" parent="1" source="ndSsIGm1OfHKqzPFfZBR-15">
          <mxGeometry relative="1" as="geometry">
            <mxPoint x="590" y="560" as="targetPoint" />
          </mxGeometry>
        </mxCell>
        <mxCell id="ndSsIGm1OfHKqzPFfZBR-17" value="Y" style="edgeLabel;html=1;align=center;verticalAlign=middle;resizable=0;points=[];" connectable="0" vertex="1" parent="ndSsIGm1OfHKqzPFfZBR-16">
          <mxGeometry x="-0.5036" y="-1" relative="1" as="geometry">
            <mxPoint as="offset" />
          </mxGeometry>
        </mxCell>
        <mxCell id="ndSsIGm1OfHKqzPFfZBR-25" style="edgeStyle=orthogonalEdgeStyle;rounded=0;orthogonalLoop=1;jettySize=auto;html=1;" edge="1" parent="1" source="ndSsIGm1OfHKqzPFfZBR-15">
          <mxGeometry relative="1" as="geometry">
            <mxPoint x="1240" y="560" as="targetPoint" />
          </mxGeometry>
        </mxCell>
        <mxCell id="ndSsIGm1OfHKqzPFfZBR-26" value="N" style="edgeLabel;html=1;align=center;verticalAlign=middle;resizable=0;points=[];" connectable="0" vertex="1" parent="ndSsIGm1OfHKqzPFfZBR-25">
          <mxGeometry x="-0.436" y="-1" relative="1" as="geometry">
            <mxPoint as="offset" />
          </mxGeometry>
        </mxCell>
        <mxCell id="ndSsIGm1OfHKqzPFfZBR-15" value="if number of units&amp;lt;=150" style="rhombus;whiteSpace=wrap;html=1;" vertex="1" parent="1">
          <mxGeometry x="690" y="410" width="180" height="80" as="geometry" />
        </mxCell>
        <mxCell id="ndSsIGm1OfHKqzPFfZBR-20" style="edgeStyle=orthogonalEdgeStyle;rounded=0;orthogonalLoop=1;jettySize=auto;html=1;" edge="1" parent="1" source="ndSsIGm1OfHKqzPFfZBR-18">
          <mxGeometry relative="1" as="geometry">
            <mxPoint x="600" y="700" as="targetPoint" />
          </mxGeometry>
        </mxCell>
        <mxCell id="ndSsIGm1OfHKqzPFfZBR-53" style="edgeStyle=orthogonalEdgeStyle;rounded=0;orthogonalLoop=1;jettySize=auto;html=1;" edge="1" parent="1" source="ndSsIGm1OfHKqzPFfZBR-18">
          <mxGeometry relative="1" as="geometry">
            <mxPoint x="900" y="1260" as="targetPoint" />
          </mxGeometry>
        </mxCell>
        <mxCell id="ndSsIGm1OfHKqzPFfZBR-18" value="&lt;pre style=&quot;font-size: 9.8pt;&quot;&gt;&lt;font style=&quot;&quot; face=&quot;Helvetica&quot;&gt;amount2= 0.75*units - (0.25*50)&lt;/font&gt;&lt;/pre&gt;" style="shape=parallelogram;perimeter=parallelogramPerimeter;whiteSpace=wrap;html=1;fixedSize=1;" vertex="1" parent="1">
          <mxGeometry x="470" y="560" width="260" height="60" as="geometry" />
        </mxCell>
        <mxCell id="ndSsIGm1OfHKqzPFfZBR-23" style="edgeStyle=orthogonalEdgeStyle;rounded=0;orthogonalLoop=1;jettySize=auto;html=1;" edge="1" parent="1" source="ndSsIGm1OfHKqzPFfZBR-22">
          <mxGeometry relative="1" as="geometry">
            <mxPoint x="610" y="840" as="targetPoint" />
          </mxGeometry>
        </mxCell>
        <mxCell id="ndSsIGm1OfHKqzPFfZBR-22" value="&lt;div style=&quot;&quot;&gt;&lt;pre style=&quot;&quot;&gt;&lt;font style=&quot;font-size: 12px; background-color: rgb(255, 255, 255);&quot; face=&quot;Helvetica&quot;&gt;after_surcharge_2= amount2 + (20/100*amount2)&lt;/font&gt;&lt;font style=&quot;background-color: rgb(30, 31, 34); font-size: 9.8pt; color: rgb(188, 190, 196);&quot; face=&quot;JetBrains Mono, monospace&quot;&gt;&lt;br&gt;&lt;/font&gt;&lt;/pre&gt;&lt;/div&gt;" style="shape=parallelogram;perimeter=parallelogramPerimeter;whiteSpace=wrap;html=1;fixedSize=1;" vertex="1" parent="1">
          <mxGeometry x="390" y="700" width="440" height="60" as="geometry" />
        </mxCell>
        <mxCell id="ndSsIGm1OfHKqzPFfZBR-55" style="edgeStyle=orthogonalEdgeStyle;rounded=0;orthogonalLoop=1;jettySize=auto;html=1;" edge="1" parent="1" source="ndSsIGm1OfHKqzPFfZBR-24">
          <mxGeometry relative="1" as="geometry">
            <mxPoint x="830" y="1280" as="targetPoint" />
            <Array as="points">
              <mxPoint x="595" y="1230" />
              <mxPoint x="596" y="1280" />
            </Array>
          </mxGeometry>
        </mxCell>
        <mxCell id="ndSsIGm1OfHKqzPFfZBR-24" value="print (after surcharge amount2)" style="shape=parallelogram;perimeter=parallelogramPerimeter;whiteSpace=wrap;html=1;fixedSize=1;" vertex="1" parent="1">
          <mxGeometry x="470" y="840" width="250" height="60" as="geometry" />
        </mxCell>
        <mxCell id="ndSsIGm1OfHKqzPFfZBR-32" style="edgeStyle=orthogonalEdgeStyle;rounded=0;orthogonalLoop=1;jettySize=auto;html=1;" edge="1" parent="1" source="ndSsIGm1OfHKqzPFfZBR-31">
          <mxGeometry relative="1" as="geometry">
            <mxPoint x="1050" y="700" as="targetPoint" />
          </mxGeometry>
        </mxCell>
        <mxCell id="ndSsIGm1OfHKqzPFfZBR-36" value="Y" style="edgeLabel;html=1;align=center;verticalAlign=middle;resizable=0;points=[];" connectable="0" vertex="1" parent="ndSsIGm1OfHKqzPFfZBR-32">
          <mxGeometry x="-0.5462" y="1" relative="1" as="geometry">
            <mxPoint as="offset" />
          </mxGeometry>
        </mxCell>
        <mxCell id="ndSsIGm1OfHKqzPFfZBR-39" style="edgeStyle=orthogonalEdgeStyle;rounded=0;orthogonalLoop=1;jettySize=auto;html=1;" edge="1" parent="1" source="ndSsIGm1OfHKqzPFfZBR-31">
          <mxGeometry relative="1" as="geometry">
            <mxPoint x="1700" y="700" as="targetPoint" />
          </mxGeometry>
        </mxCell>
        <mxCell id="ndSsIGm1OfHKqzPFfZBR-45" value="N" style="edgeLabel;html=1;align=center;verticalAlign=middle;resizable=0;points=[];" connectable="0" vertex="1" parent="ndSsIGm1OfHKqzPFfZBR-39">
          <mxGeometry x="-0.3355" y="1" relative="1" as="geometry">
            <mxPoint as="offset" />
          </mxGeometry>
        </mxCell>
        <mxCell id="ndSsIGm1OfHKqzPFfZBR-31" value="if number of units&amp;lt;=250" style="rhombus;whiteSpace=wrap;html=1;" vertex="1" parent="1">
          <mxGeometry x="1140" y="560" width="200" height="80" as="geometry" />
        </mxCell>
        <mxCell id="ndSsIGm1OfHKqzPFfZBR-33" style="edgeStyle=orthogonalEdgeStyle;rounded=0;orthogonalLoop=1;jettySize=auto;html=1;entryX=0.581;entryY=-0.033;entryDx=0;entryDy=0;entryPerimeter=0;" edge="1" parent="1" source="ndSsIGm1OfHKqzPFfZBR-34" target="ndSsIGm1OfHKqzPFfZBR-35">
          <mxGeometry relative="1" as="geometry">
            <mxPoint x="1045" y="830" as="targetPoint" />
          </mxGeometry>
        </mxCell>
        <mxCell id="ndSsIGm1OfHKqzPFfZBR-58" style="edgeStyle=orthogonalEdgeStyle;rounded=0;orthogonalLoop=1;jettySize=auto;html=1;" edge="1" parent="1" source="ndSsIGm1OfHKqzPFfZBR-34">
          <mxGeometry relative="1" as="geometry">
            <mxPoint x="980" y="1321" as="targetPoint" />
            <Array as="points">
              <mxPoint x="1351" y="730" />
              <mxPoint x="1351" y="1321" />
            </Array>
          </mxGeometry>
        </mxCell>
        <mxCell id="ndSsIGm1OfHKqzPFfZBR-34" value="&lt;div style=&quot;&quot;&gt;&lt;pre style=&quot;font-family: &amp;quot;JetBrains Mono&amp;quot;, monospace; font-size: 9.8pt;&quot;&gt;&lt;span style=&quot;background-color: rgb(255, 255, 255);&quot;&gt;amount3= 1.20*units - (100*0.5 - (50*0.70))&lt;/span&gt;&lt;/pre&gt;&lt;/div&gt;" style="shape=parallelogram;perimeter=parallelogramPerimeter;whiteSpace=wrap;html=1;fixedSize=1;" vertex="1" parent="1">
          <mxGeometry x="940" y="700" width="370" height="60" as="geometry" />
        </mxCell>
        <mxCell id="ndSsIGm1OfHKqzPFfZBR-37" style="edgeStyle=orthogonalEdgeStyle;rounded=0;orthogonalLoop=1;jettySize=auto;html=1;" edge="1" parent="1" source="ndSsIGm1OfHKqzPFfZBR-35">
          <mxGeometry relative="1" as="geometry">
            <mxPoint x="1095" y="970" as="targetPoint" />
          </mxGeometry>
        </mxCell>
        <mxCell id="ndSsIGm1OfHKqzPFfZBR-35" value="&lt;div style=&quot;&quot;&gt;&lt;pre style=&quot;font-family: &amp;quot;JetBrains Mono&amp;quot;, monospace; font-size: 9.8pt;&quot;&gt;&lt;span style=&quot;background-color: rgb(255, 255, 255);&quot;&gt;after_surcharge_3= amount3 + (20/100*amount3)&lt;/span&gt;&lt;font style=&quot;background-color: rgb(30, 31, 34);&quot; color=&quot;#bcbec4&quot;&gt;&lt;br&gt;&lt;/font&gt;&lt;/pre&gt;&lt;/div&gt;" style="shape=parallelogram;perimeter=parallelogramPerimeter;whiteSpace=wrap;html=1;fixedSize=1;" vertex="1" parent="1">
          <mxGeometry x="910" y="830" width="370" height="60" as="geometry" />
        </mxCell>
        <mxCell id="ndSsIGm1OfHKqzPFfZBR-56" style="edgeStyle=orthogonalEdgeStyle;rounded=0;orthogonalLoop=1;jettySize=auto;html=1;" edge="1" parent="1" source="ndSsIGm1OfHKqzPFfZBR-38">
          <mxGeometry relative="1" as="geometry">
            <mxPoint x="970" y="1280" as="targetPoint" />
            <Array as="points">
              <mxPoint x="1090" y="1270" />
              <mxPoint x="1091" y="1280" />
            </Array>
          </mxGeometry>
        </mxCell>
        <mxCell id="ndSsIGm1OfHKqzPFfZBR-38" value="print(after surcharge 3)" style="shape=parallelogram;perimeter=parallelogramPerimeter;whiteSpace=wrap;html=1;fixedSize=1;" vertex="1" parent="1">
          <mxGeometry x="970" y="970" width="240" height="60" as="geometry" />
        </mxCell>
        <mxCell id="ndSsIGm1OfHKqzPFfZBR-40" style="edgeStyle=orthogonalEdgeStyle;rounded=0;orthogonalLoop=1;jettySize=auto;html=1;" edge="1" parent="1" source="ndSsIGm1OfHKqzPFfZBR-41">
          <mxGeometry relative="1" as="geometry">
            <mxPoint x="1740" y="820" as="targetPoint" />
          </mxGeometry>
        </mxCell>
        <mxCell id="ndSsIGm1OfHKqzPFfZBR-59" style="edgeStyle=orthogonalEdgeStyle;rounded=0;orthogonalLoop=1;jettySize=auto;html=1;" edge="1" parent="1" source="ndSsIGm1OfHKqzPFfZBR-41">
          <mxGeometry relative="1" as="geometry">
            <mxPoint x="980" y="1351" as="targetPoint" />
            <Array as="points">
              <mxPoint x="1421" y="730" />
              <mxPoint x="1421" y="1351" />
            </Array>
          </mxGeometry>
        </mxCell>
        <mxCell id="ndSsIGm1OfHKqzPFfZBR-41" value="&lt;div style=&quot;&quot;&gt;&lt;pre style=&quot;font-family: &amp;quot;JetBrains Mono&amp;quot;, monospace; font-size: 9.8pt;&quot;&gt;&lt;div style=&quot;&quot;&gt;&lt;pre style=&quot;font-family: &amp;quot;JetBrains Mono&amp;quot;, monospace; font-size: 9.8pt;&quot;&gt;&lt;span style=&quot;background-color: rgb(255, 255, 255);&quot;&gt;amount4= 1.50*units - (0.30*100 - (100*0.75 - (50*1.0)))&lt;/span&gt;&lt;font style=&quot;background-color: rgb(30, 31, 34);&quot; color=&quot;#bcbec4&quot;&gt;&lt;br&gt;&lt;/font&gt;&lt;/pre&gt;&lt;/div&gt;&lt;/pre&gt;&lt;/div&gt;" style="shape=parallelogram;perimeter=parallelogramPerimeter;whiteSpace=wrap;html=1;fixedSize=1;" vertex="1" parent="1">
          <mxGeometry x="1500" y="700" width="480" height="60" as="geometry" />
        </mxCell>
        <mxCell id="ndSsIGm1OfHKqzPFfZBR-43" style="edgeStyle=orthogonalEdgeStyle;rounded=0;orthogonalLoop=1;jettySize=auto;html=1;" edge="1" parent="1" source="ndSsIGm1OfHKqzPFfZBR-42">
          <mxGeometry relative="1" as="geometry">
            <mxPoint x="1735" y="970" as="targetPoint" />
          </mxGeometry>
        </mxCell>
        <mxCell id="ndSsIGm1OfHKqzPFfZBR-60" style="edgeStyle=orthogonalEdgeStyle;rounded=0;orthogonalLoop=1;jettySize=auto;html=1;" edge="1" parent="1" source="ndSsIGm1OfHKqzPFfZBR-42" target="ndSsIGm1OfHKqzPFfZBR-46">
          <mxGeometry relative="1" as="geometry">
            <mxPoint x="1470" y="1380" as="targetPoint" />
            <Array as="points">
              <mxPoint x="1471" y="860" />
              <mxPoint x="1471" y="1370" />
            </Array>
          </mxGeometry>
        </mxCell>
        <mxCell id="ndSsIGm1OfHKqzPFfZBR-42" value="&lt;div style=&quot;&quot;&gt;&lt;pre style=&quot;font-family: &amp;quot;JetBrains Mono&amp;quot;, monospace; font-size: 9.8pt;&quot;&gt;&lt;div style=&quot;&quot;&gt;&lt;pre style=&quot;font-family: &amp;quot;JetBrains Mono&amp;quot;, monospace; font-size: 9.8pt;&quot;&gt;&lt;span style=&quot;background-color: rgb(255, 255, 255);&quot;&gt;after_surcharge_4= amount4 + (20/100*amount4)&lt;/span&gt;&lt;font style=&quot;background-color: rgb(30, 31, 34);&quot; color=&quot;#bcbec4&quot;&gt;&lt;br&gt;&lt;/font&gt;&lt;/pre&gt;&lt;/div&gt;&lt;/pre&gt;&lt;/div&gt;" style="shape=parallelogram;perimeter=parallelogramPerimeter;whiteSpace=wrap;html=1;fixedSize=1;" vertex="1" parent="1">
          <mxGeometry x="1550" y="830" width="370" height="60" as="geometry" />
        </mxCell>
        <mxCell id="ndSsIGm1OfHKqzPFfZBR-61" style="edgeStyle=orthogonalEdgeStyle;rounded=0;orthogonalLoop=1;jettySize=auto;html=1;" edge="1" parent="1" source="ndSsIGm1OfHKqzPFfZBR-44">
          <mxGeometry relative="1" as="geometry">
            <mxPoint x="940" y="1400" as="targetPoint" />
            <Array as="points">
              <mxPoint x="1735" y="1330" />
              <mxPoint x="1736" y="1380" />
            </Array>
          </mxGeometry>
        </mxCell>
        <mxCell id="ndSsIGm1OfHKqzPFfZBR-44" value="print(after surcharge amount4)" style="shape=parallelogram;perimeter=parallelogramPerimeter;whiteSpace=wrap;html=1;fixedSize=1;" vertex="1" parent="1">
          <mxGeometry x="1615" y="970" width="240" height="60" as="geometry" />
        </mxCell>
        <mxCell id="ndSsIGm1OfHKqzPFfZBR-62" style="edgeStyle=orthogonalEdgeStyle;rounded=0;orthogonalLoop=1;jettySize=auto;html=1;" edge="1" parent="1" source="ndSsIGm1OfHKqzPFfZBR-46" target="ndSsIGm1OfHKqzPFfZBR-63">
          <mxGeometry relative="1" as="geometry">
            <mxPoint x="900" y="1560" as="targetPoint" />
          </mxGeometry>
        </mxCell>
        <mxCell id="ndSsIGm1OfHKqzPFfZBR-46" value="" style="ellipse;whiteSpace=wrap;html=1;aspect=fixed;" vertex="1" parent="1">
          <mxGeometry x="840" y="1270" width="120" height="120" as="geometry" />
        </mxCell>
        <mxCell id="ndSsIGm1OfHKqzPFfZBR-54" value="" style="endArrow=classic;html=1;rounded=0;exitX=0.866;exitY=0.954;exitDx=0;exitDy=0;exitPerimeter=0;" edge="1" parent="1" source="ndSsIGm1OfHKqzPFfZBR-22" target="ndSsIGm1OfHKqzPFfZBR-46">
          <mxGeometry width="50" height="50" relative="1" as="geometry">
            <mxPoint x="860" y="1020" as="sourcePoint" />
            <mxPoint x="910" y="970" as="targetPoint" />
          </mxGeometry>
        </mxCell>
        <mxCell id="ndSsIGm1OfHKqzPFfZBR-57" value="" style="endArrow=classic;html=1;rounded=0;exitX=0.139;exitY=0.996;exitDx=0;exitDy=0;exitPerimeter=0;" edge="1" parent="1" source="ndSsIGm1OfHKqzPFfZBR-35" target="ndSsIGm1OfHKqzPFfZBR-46">
          <mxGeometry width="50" height="50" relative="1" as="geometry">
            <mxPoint x="860" y="1020" as="sourcePoint" />
            <mxPoint x="910" y="970" as="targetPoint" />
          </mxGeometry>
        </mxCell>
        <mxCell id="ndSsIGm1OfHKqzPFfZBR-63" value="&lt;font size=&quot;3&quot;&gt;STOP&lt;/font&gt;" style="ellipse;whiteSpace=wrap;html=1;" vertex="1" parent="1">
          <mxGeometry x="810" y="1510" width="180" height="100" as="geometry" />
        </mxCell>
      </root>
    </mxGraphModel>
  </diagram>
</mxfile>
